<svg preserveAspectRatio="none" width="100%" height="100%" overflow="visible" style="display: block;" viewBox="0 0 15 12" fill="none" xmlns="http://www.w3.org/2000/svg">
<g id="Group">
<path id="Vector" fill-rule="evenodd" clip-rule="evenodd" d="M7.16667 3.33333C6.50363 3.33333 5.86774 3.59673 5.3989 4.06557C4.93006 4.53441 4.66667 5.17029 4.66667 5.83333C4.66667 6.49638 4.93006 7.13226 5.3989 7.6011C5.86774 8.06994 6.50363 8.33333 7.16667 8.33333C7.82971 8.33333 8.46559 8.06994 8.93444 7.6011C9.40328 7.13226 9.66667 6.49638 9.66667 5.83333C9.66667 5.17029 9.40328 4.53441 8.93444 4.06557C8.46559 3.59673 7.82971 3.33333 7.16667 3.33333ZM5.66667 5.83333C5.66667 5.43551 5.8247 5.05398 6.10601 4.77267C6.38731 4.49137 6.76884 4.33333 7.16667 4.33333C7.56449 4.33333 7.94602 4.49137 8.22733 4.77267C8.50863 5.05398 8.66667 5.43551 8.66667 5.83333C8.66667 6.23116 8.50863 6.61269 8.22733 6.89399C7.94602 7.1753 7.56449 7.33333 7.16667 7.33333C6.76884 7.33333 6.38731 7.1753 6.10601 6.89399C5.8247 6.61269 5.66667 6.23116 5.66667 5.83333Z" fill="var(--fill-0, #404040)"/>
<path id="Vector_2" fill-rule="evenodd" clip-rule="evenodd" d="M7.16666 0C4.15733 0 2.13 1.80267 0.953333 3.33133L0.932666 3.35867C0.666 3.70467 0.421333 4.02267 0.255333 4.39867C0.0773333 4.802 0 5.24133 0 5.83333C0 6.42533 0.0773333 6.86467 0.255333 7.268C0.422 7.644 0.666666 7.96267 0.932666 8.308L0.954 8.33533C2.13 9.864 4.15733 11.6667 7.16666 11.6667C10.176 11.6667 12.2033 9.864 13.38 8.33533L13.4007 8.308C13.6673 7.96267 13.912 7.644 14.078 7.268C14.256 6.86467 14.3333 6.42533 14.3333 5.83333C14.3333 5.24133 14.256 4.802 14.078 4.39867C13.9113 4.02267 13.6667 3.70467 13.4007 3.35867L13.3793 3.33133C12.2033 1.80267 10.176 0 7.16666 0ZM1.74667 3.94133C2.832 2.53 4.6 1 7.16666 1C9.73333 1 11.5007 2.53 12.5867 3.94133C12.88 4.32133 13.0507 4.548 13.1633 4.80267C13.2687 5.04133 13.3333 5.33267 13.3333 5.83333C13.3333 6.334 13.2687 6.62533 13.1633 6.864C13.0507 7.11867 12.8793 7.34533 12.5873 7.72533C11.5 9.13667 9.73333 10.6667 7.16666 10.6667C4.6 10.6667 2.83267 9.13667 1.74667 7.72533C1.45333 7.34533 1.28267 7.11867 1.17 6.864C1.06467 6.62533 1 6.334 1 5.83333C1 5.33267 1.06467 5.04133 1.17 4.80267C1.28267 4.548 1.45467 4.32133 1.74667 3.94133Z" fill="var(--fill-0, #404040)"/>
</g>
</svg>
